# xmcd
#
# Track frame offsets: 
#        150
#        19961
#        31188
#        43180
#        55610
#        72085
#        88786
#        102719
#        120770
#        135586
#        148926
#        164041
#        176687
#        189959
#        206158
#        222524
#
# Disc length: 3149 seconds
#
# Revision: 0
# Processed by: cddbd v1.5.1PL0 Copyright (c) Steve Scherf et al.
# Submitted via: ExactAudioCopy v0.95a5
#
DISCID=ef0c4b10
DTITLE=Various Artist - The Big Country
DYEAR=2002
DGENRE=Country
TTITLE0=Kris Kristofferson - Me and Bobby McGee
TTITLE1=George Jones - She's My Rock
TTITLE2=Barbara Fairchild - Cheatin' Is
TTITLE3=Janie Fricke - Easy To Please
TTITLE4=Mark Gray and Tammy Wynette - Sometimes When We Touch
TTITLE5=David Allan Coe - Mona Lisa Lost Her Smile
TTITLE6=Johnny Cash - It Ain't Me, Babe
TTITLE7=Johnny Duncan - Slow Dancing
TTITLE8=Rodney Crowell - She's Crazy for Leavin'
TTITLE9=David Houston - Almost Persuaded
TTITLE10=The O'Kanes - One True Love
TTITLE11=Charlie McClain - The Very Best Is You
TTITLE12=Larry Gatlin and The Gatlin Brothers Band - Houston (Means I'm 
TTITLE12=One Day Closer To You)
TTITLE13=Bobby Bare - The Gambler
TTITLE14=The Charlie Daniels Band - The Devil Went Down To Georgia
TTITLE15=Johnny Cash, Willie Nelson, Waylon Jennings and Kris Kristoffer
TTITLE15=son - Highwayman
EXTD=
EXTT0=
EXTT1=
EXTT2=
EXTT3=
EXTT4=
EXTT5=
EXTT6=
EXTT7=
EXTT8=
EXTT9=
EXTT10=
EXTT11=
EXTT12=
EXTT13=
EXTT14=
EXTT15=
PLAYORDER=
